<svg xmlns="http://www.w3.org/2000/svg" width="18.75" height="18.75" viewBox="0 0 18.75 18.75"><defs><style>.a{fill:#fff;}</style></defs><path class="a" d="M7.3-16.475A9.393,9.393,0,0,0,1.41-11.25H5.315A12.471,12.471,0,0,1,7.3-16.475ZM6.25-7.5A21.591,21.591,0,0,0,6.392-5H13.61a21.59,21.59,0,0,0,.142-2.5A21.59,21.59,0,0,0,13.61-10H6.391A22.009,22.009,0,0,0,6.25-7.5Zm7.172-3.75c-.635-3.439-2.085-5.625-3.421-5.625S7.215-14.689,6.578-11.25Zm5.168,0A9.4,9.4,0,0,0,12.7-16.477a12.471,12.471,0,0,1,1.98,5.227ZM12.7,1.477A9.5,9.5,0,0,0,18.59-3.75H14.685A12.478,12.478,0,0,1,12.7,1.477ZM19.027-10H14.863A22.919,22.919,0,0,1,15-7.5,22.919,22.919,0,0,1,14.863-5h4.164a9.358,9.358,0,0,0,.347-2.5A9.423,9.423,0,0,0,19.027-10ZM6.578-3.75C7.213-.311,8.663,1.875,10,1.875S12.785-.311,13.42-3.75ZM5-7.5A22.919,22.919,0,0,1,5.136-10H.972A9.358,9.358,0,0,0,.625-7.5,9.358,9.358,0,0,0,.972-5H5.137A22.4,22.4,0,0,1,5-7.5ZM1.41-3.75A9.314,9.314,0,0,0,7.3,1.477,12.462,12.462,0,0,1,5.316-3.75Z" transform="translate(-0.625 16.875)"/></svg>