<svg xmlns="http://www.w3.org/2000/svg" width="17.995" height="18" viewBox="0 0 17.995 18"><defs><style>.a{fill:#fff;}</style></defs><path class="a" d="M17.722.809,13.011-3.9a7.094,7.094,0,0,0,1.582-4.535A7.312,7.312,0,0,0,7.281-15.75,7.286,7.286,0,0,0,0-8.437,7.306,7.306,0,0,0,7.281-1.125a7.27,7.27,0,0,0,4.535-1.583L16.527,2a.972.972,0,0,0,.629.248.844.844,0,0,0,.6-.247A.822.822,0,0,0,17.722.809ZM1.688-8.437a5.632,5.632,0,0,1,5.625-5.625,5.632,5.632,0,0,1,5.625,5.625A5.632,5.632,0,0,1,7.313-2.812,5.632,5.632,0,0,1,1.688-8.437Z" transform="translate(0 15.75)"/></svg>