<svg xmlns="http://www.w3.org/2000/svg" xmlns:xlink="http://www.w3.org/1999/xlink" width="35.011" height="55.894" viewBox="0 0 35.011 55.894"><defs><style>.a{fill:none;}.b{fill:#d9000d;}.c{clip-path:url(#a);}.d{fill:#fff;}</style><clipPath id="a"><rect class="a" width="35.011" height="55.893"/></clipPath></defs><rect class="b" width="35.011" height="34.699" transform="translate(0 0)"/><g transform="translate(0 0)"><g class="c"><path class="d" d="M9.782,6.429a3.4,3.4,0,1,1-3.4-3.4,3.4,3.4,0,0,1,3.4,3.4" transform="translate(3.909 3.969)"/><rect class="d" width="5.87" height="13.283" transform="translate(7.205 14.62)"/><rect class="d" width="5.868" height="20.289" transform="translate(14.364 7.614)"/><rect class="d" width="5.868" height="5.868" transform="translate(21.88 7.567)"/><rect class="d" width="5.868" height="5.872" transform="translate(21.88 14.567)"/><path class="b" d="M.174,16.2H1.01v.182c-.009.009-.012.014,0,.014l.058-.028a3.2,3.2,0,0,1,.39-.157,2.332,2.332,0,0,1,.7-.1,1.637,1.637,0,0,1,1.235.464,2.042,2.042,0,0,1,.5,1.478,1.915,1.915,0,0,1-.45,1.344,1.768,1.768,0,0,1-1.379.54,2.2,2.2,0,0,1-.709-.122.631.631,0,0,1-.337-.159v1.067H.174Zm1.187,2.9a.993.993,0,0,0,.679.233.907.907,0,0,0,.744-.3,1.5,1.5,0,0,0,.277-.991,1.752,1.752,0,0,0-.206-.933.93.93,0,0,0-.829-.381.894.894,0,0,0-.794.374,1.841,1.841,0,0,0-.222,1,1.3,1.3,0,0,0,.351,1" transform="translate(0.228 21.095)"/><path class="b" d="M2.8,16.229v.238a.782.782,0,0,1,.344-.2,3.27,3.27,0,0,1,1-.129v.647a1.822,1.822,0,0,0-1.051.24.609.609,0,0,0-.266.524v2.291H1.985V16.229Z" transform="translate(2.599 21.127)"/><path class="b" d="M3.549,16.663a1.776,1.776,0,0,1,1.386-.55,1.815,1.815,0,0,1,1.395.515,1.958,1.958,0,0,1,.471,1.4,2.047,2.047,0,0,1-.43,1.356,1.78,1.78,0,0,1-1.436.591,1.757,1.757,0,0,1-1.416-.605,2,2,0,0,1-.45-1.342,1.934,1.934,0,0,1,.48-1.367m.58,2.323a.875.875,0,0,0,.787.386.921.921,0,0,0,.841-.4,1.836,1.836,0,0,0,.217-.979,1.6,1.6,0,0,0-.217-.891.946.946,0,0,0-.841-.372.9.9,0,0,0-.808.372,1.7,1.7,0,0,0-.2.905,1.781,1.781,0,0,0,.222.979" transform="translate(4.018 21.095)"/><path class="b" d="M8.346,20.444H7.506v-.182a.732.732,0,0,1-.335.182,2.264,2.264,0,0,1-.723.109,1.478,1.478,0,0,1-1.33-.633A2.521,2.521,0,0,1,4.8,18.553a1.889,1.889,0,0,1,.46-1.307,1.577,1.577,0,0,1,1.192-.5,2.233,2.233,0,0,1,.515.053,1.225,1.225,0,0,1,.335.122.865.865,0,0,1,.173.113c.053.051.065.069.035.049V15.673h.841ZM5.864,17.751a1.848,1.848,0,0,0,0,1.78.775.775,0,0,0,.7.416.809.809,0,0,0,.709-.416,1.816,1.816,0,0,0,0-1.78.818.818,0,0,0-.709-.395.782.782,0,0,0-.7.395" transform="translate(6.281 20.519)"/><path class="b" d="M9.1,19.806v-.159a1.109,1.109,0,0,1-.351.145,2.957,2.957,0,0,1-.845.122,1.637,1.637,0,0,1-.933-.249,1.014,1.014,0,0,1-.432-.889V16.155h.841V18.7a.63.63,0,0,0,.143.483.825.825,0,0,0,.557.134,1.071,1.071,0,0,0,.783-.279A.717.717,0,0,0,9.1,18.5V16.155h.838v3.651Z" transform="translate(8.556 21.15)"/><path class="b" d="M10.78,17.547a1.15,1.15,0,0,0-.242-.591A.843.843,0,0,0,9.9,16.73a.867.867,0,0,0-.744.3,1.5,1.5,0,0,0-.208.887,2.218,2.218,0,0,0,.185,1.028.853.853,0,0,0,.808.425.758.758,0,0,0,.6-.233,1.071,1.071,0,0,0,.226-.663h.845A1.708,1.708,0,0,1,11.2,19.5a1.682,1.682,0,0,1-1.293.471,1.679,1.679,0,0,1-1.367-.6,2.1,2.1,0,0,1-.432-1.367,1.949,1.949,0,0,1,.453-1.358,1.807,1.807,0,0,1,1.418-.54,1.641,1.641,0,0,1,1.157.4,1.458,1.458,0,0,1,.46,1.032Z" transform="translate(10.618 21.095)"/><path class="b" d="M10.936,17.29v2.4a.127.127,0,0,0,.072.125.688.688,0,0,0,.173.014h.369v.593c-.122.009-.249.016-.379.023a2.327,2.327,0,0,1-.236.009.906.906,0,0,1-.61-.194.8.8,0,0,1-.219-.617V17.29h-.5v-.607h.5V15.75h.829v.933h.614v.607Z" transform="translate(12.577 20.62)"/><path class="b" d="M3.619,23.647H2.776v-.176a.737.737,0,0,1-.335.176,2.137,2.137,0,0,1-.72.109,1.464,1.464,0,0,1-1.33-.63,2.508,2.508,0,0,1-.323-1.362,1.887,1.887,0,0,1,.457-1.307,1.567,1.567,0,0,1,1.2-.5A2.729,2.729,0,0,1,2.233,20a1.881,1.881,0,0,1,.335.122.9.9,0,0,1,.173.115c.053.055.065.074.035.051v-1.4h.843ZM1.134,20.961a1.839,1.839,0,0,0,0,1.776.77.77,0,0,0,.7.416.8.8,0,0,0,.707-.416,1.588,1.588,0,0,0,.233-.889,1.575,1.575,0,0,0-.233-.887.823.823,0,0,0-.707-.4.792.792,0,0,0-.7.4" transform="translate(0.088 24.725)"/><path class="b" d="M5.432,21.833a1.484,1.484,0,0,1-.543.938,2.056,2.056,0,0,1-1.358.416,1.628,1.628,0,0,1-1.351-.6,2.159,2.159,0,0,1-.436-1.392,1.845,1.845,0,0,1,.494-1.321,1.787,1.787,0,0,1,1.372-.543,1.678,1.678,0,0,1,1.307.527,2.284,2.284,0,0,1,.5,1.577H2.559a1.427,1.427,0,0,0,.236.817.864.864,0,0,0,.751.335,1.167,1.167,0,0,0,.73-.194.887.887,0,0,0,.323-.557Zm-.866-1.018a.838.838,0,0,0-.249-.626,1.125,1.125,0,0,0-.785-.252,1.02,1.02,0,0,0-.73.256.839.839,0,0,0-.252.621Z" transform="translate(2.283 25.303)"/><path class="b" d="M6.566,20.6a1.17,1.17,0,0,0-.272-.787,1.621,1.621,0,0,0-1.319-.49,1.869,1.869,0,0,0-1.06.282.9.9,0,0,0-.434.774.816.816,0,0,0,.356.711,3.532,3.532,0,0,0,1.037.4,2.41,2.41,0,0,1,.776.275.458.458,0,0,1,.15.379.377.377,0,0,1-.166.351,1.284,1.284,0,0,1-.587.095.9.9,0,0,1-.7-.224.726.726,0,0,1-.141-.494H3.361a1.243,1.243,0,0,0,.293.85,1.8,1.8,0,0,0,1.4.469,2.081,2.081,0,0,0,1.152-.3.935.935,0,0,0,.432-.815.953.953,0,0,0-.3-.76,2.75,2.75,0,0,0-1.088-.432,4.3,4.3,0,0,1-.794-.252.312.312,0,0,1-.129-.286.341.341,0,0,1,.173-.323,1.039,1.039,0,0,1,.441-.079.882.882,0,0,1,.626.192.653.653,0,0,1,.164.464Z" transform="translate(4.4 25.295)"/><path class="b" d="M5.731,18.885H4.89v.667h.841Zm0,1.113H4.89v3.649h.841Z" transform="translate(6.402 24.725)"/><path class="b" d="M8.911,22.353a1.55,1.55,0,0,1-.277.975,1.985,1.985,0,0,1-1.586.531,2.191,2.191,0,0,1-.933-.182,1.008,1.008,0,0,1-.619-.755H6.3a.425.425,0,0,0,.279.263,1.313,1.313,0,0,0,.45.067,1.376,1.376,0,0,0,.9-.219.385.385,0,0,0,.15-.319v-.238a.813.813,0,0,1-.386.238,1.762,1.762,0,0,1-.644.115,1.472,1.472,0,0,1-1.314-.624,1.991,1.991,0,0,1-.316-1.145,1.8,1.8,0,0,1,.436-1.219,1.542,1.542,0,0,1,1.2-.52,1.709,1.709,0,0,1,.672.127.945.945,0,0,1,.351.242v-.233h.829ZM6.484,20.3a1.509,1.509,0,0,0,0,1.575.839.839,0,0,0,1.372,0,1.434,1.434,0,0,0,0-1.575.836.836,0,0,0-1.372,0m1.478.014H7.928c-.007,0,0,.007.021.007l.014-.007" transform="translate(7.099 25.295)"/><path class="b" d="M10.691,23.076H9.851V20.658a.66.66,0,0,0-.194-.547.93.93,0,0,0-.614-.169,1.259,1.259,0,0,0-.663.192.673.673,0,0,0-.353.573v2.369H7.186V19.406h.841v.245a1.986,1.986,0,0,1,.349-.185,2.2,2.2,0,0,1,.79-.145,2.035,2.035,0,0,1,.977.222,1.058,1.058,0,0,1,.55.979Z" transform="translate(9.408 25.295)"/><path class="b" d="M.982,23.741a.708.708,0,0,1,.194-.471,1.252,1.252,0,0,1,.672-.12,1.154,1.154,0,0,1,.607.106.547.547,0,0,1,.164.471.165.165,0,0,1-.037.115.316.316,0,0,1-.171.083,2.291,2.291,0,0,1-.42.092c-.166.03-.432.072-.792.125a1.376,1.376,0,0,0-.944.46,1.067,1.067,0,0,0-.187.672,1.048,1.048,0,0,0,.358.813,1.324,1.324,0,0,0,.9.307,2.8,2.8,0,0,0,.993-.152,1.118,1.118,0,0,0,.351-.176c0,.055.055.113.15.171a1.3,1.3,0,0,0,.605.12c.069,0,.143-.007.222-.009.055-.014.134-.021.233-.035V25.7l-.212.03-.111.032c-.046,0-.074-.009-.083-.032-.009-.007-.014-.037-.014-.083V23.678a.989.989,0,0,0-.575-.914,1.921,1.921,0,0,0-.928-.231,2.219,2.219,0,0,0-1.222.282,1.125,1.125,0,0,0-.524.926ZM2.62,25.126a.541.541,0,0,1-.3.464A1.271,1.271,0,0,1,1.6,25.8a.818.818,0,0,1-.577-.159.564.564,0,0,1-.113-.395.429.429,0,0,1,.185-.395,1.808,1.808,0,0,1,.6-.169l.483-.06c.192-.03.312-.044.36-.046s.092,0,.083.007Z" transform="translate(0.089 29.501)"/><path class="b" d="M3.513,26.336H2.795L1.647,22.574h.806l.711,2.448.72-2.448h.8l.744,2.452.714-2.452h.822L5.778,26.336H5.065L4.27,23.865Z" transform="translate(2.156 29.554)"/><path class="b" d="M4.068,23.741a1.132,1.132,0,0,1,.52-.926,2.244,2.244,0,0,1,1.224-.282,1.908,1.908,0,0,1,.928.231.987.987,0,0,1,.577.914v1.965a.172.172,0,0,0,.012.083c.012.023.039.032.088.032l.106-.032.217-.03v.617c-.1.014-.18.021-.238.035-.076,0-.15.009-.222.009a1.327,1.327,0,0,1-.6-.118c-.1-.06-.145-.115-.152-.173a1.156,1.156,0,0,1-.349.176,2.828,2.828,0,0,1-1,.152,1.324,1.324,0,0,1-.9-.307,1.048,1.048,0,0,1-.358-.813A1.072,1.072,0,0,1,4.11,24.6a1.386,1.386,0,0,1,.944-.46c.36-.053.623-.095.792-.125a2.327,2.327,0,0,0,.423-.092.309.309,0,0,0,.171-.083.165.165,0,0,0,.037-.115.55.55,0,0,0-.164-.471,1.17,1.17,0,0,0-.61-.106,1.242,1.242,0,0,0-.67.12.686.686,0,0,0-.194.471Zm2.409.838c.009-.009-.018-.009-.085-.007-.048,0-.169.016-.358.046l-.487.06a1.79,1.79,0,0,0-.6.169.434.434,0,0,0-.185.395.575.575,0,0,0,.113.4.841.841,0,0,0,.58.157,1.293,1.293,0,0,0,.723-.2.547.547,0,0,0,.3-.466Z" transform="translate(5.136 29.501)"/><path class="b" d="M6.519,22.644v.245a.711.711,0,0,1,.342-.2,3.131,3.131,0,0,1,1-.132v.649a1.784,1.784,0,0,0-1.048.238.6.6,0,0,0-.268.522v2.288H5.708V22.644Z" transform="translate(7.473 29.535)"/><path class="b" d="M10.272,26.863H9.432v-.178a.772.772,0,0,1-.335.178,2.355,2.355,0,0,1-.723.1,1.479,1.479,0,0,1-1.33-.626,2.531,2.531,0,0,1-.321-1.367,1.885,1.885,0,0,1,.457-1.309,1.578,1.578,0,0,1,1.194-.5,2.737,2.737,0,0,1,.515.046,1.57,1.57,0,0,1,.337.125,1.094,1.094,0,0,1,.171.115c.051.053.065.069.035.053V22.094h.841ZM7.79,24.17a1.857,1.857,0,0,0,0,1.785.774.774,0,0,0,.7.416.8.8,0,0,0,.709-.416,1.809,1.809,0,0,0,0-1.785.812.812,0,0,0-.709-.395.781.781,0,0,0-.7.395" transform="translate(8.802 28.926)"/></g></g></svg>