<svg xmlns="http://www.w3.org/2000/svg" xmlns:xlink="http://www.w3.org/1999/xlink" width="33.723" height="41.456" viewBox="0 0 33.723 41.456"><defs><style>.a{fill:none;}.b{clip-path:url(#a);}.c{fill:#161615;}.d{fill:#ffe800;}</style><clipPath id="a"><rect class="a" width="33.723" height="41.456"/></clipPath></defs><g class="b" transform="translate(0 0)"><path class="c" d="M33.721,16.861A16.86,16.86,0,1,0,16.859,33.723,16.862,16.862,0,0,0,33.721,16.861" transform="translate(0 -0.001)"/><path class="d" d="M13.722,22.212c5.363-3.787,8.348-5.027,10.023-6.532a5.6,5.6,0,0,0,1.826-5.29,8.063,8.063,0,0,0-2.646-5.015,10.7,10.7,0,0,0-6.03-2.4C14.68,2.8,12.521,3.34,7.241,7.145a76.818,76.818,0,0,1,5.748,7.138,58.362,58.362,0,0,1,5.669-3.428c.806-.533.841-.991.784-1.422A1.283,1.283,0,0,0,18.6,8.32c-.63-.288-1.738-.468-4.7,1.667a27.339,27.339,0,0,0-2.148-2.563c2.77-1.834,4.354-2.29,5.7-2.269a5.275,5.275,0,0,1,3.39,1.315,5.578,5.578,0,0,1,1.919,3.112,3.656,3.656,0,0,1-1.307,3.746c-1.278,1-3.568,1.609-9.44,6.042Q6.695,10.852,2.153,7.39c5.412-4.121,8.429-5.5,10.913-6.054a10.97,10.97,0,0,1,6.49.454,15.409,15.409,0,0,1,5.868,3.635,11.958,11.958,0,0,1,3.211,6.259,7.158,7.158,0,0,1-1.617,6.356c-1.617,1.6-4.459,2.377-11.35,7.616q-.948-1.735-1.945-3.444" transform="translate(2.209 1.07)"/><path class="c" d="M3.612,22.634l-.032-.6a.974.974,0,0,1-.448.513,1.366,1.366,0,0,1-.738.18,1.4,1.4,0,0,1-1.232-.551,2.97,2.97,0,0,1-.4-1.716,2.734,2.734,0,0,1,.415-1.688,1.583,1.583,0,0,1,1.329-.527,1.613,1.613,0,0,1,1.1.348,1.248,1.248,0,0,1,.4.979H3.439A.953.953,0,0,0,3.17,18.9a.95.95,0,0,0-.689-.239.909.909,0,0,0-.857.436A3.165,3.165,0,0,0,1.367,20.6,2.317,2.317,0,0,0,1.64,21.87a.92.92,0,0,0,.831.413.948.948,0,0,0,.774-.324,1.438,1.438,0,0,0,.265-.934v-.118l0-.077H2.335V20.4H4.061v2.237Z" transform="translate(0.787 18.725)"/><path class="c" d="M7.47,18.766A1.484,1.484,0,0,0,6.2,18.249a1.719,1.719,0,0,0-1.009.267,1.731,1.731,0,0,0-1.015-.267,1.481,1.481,0,0,0-1.268.523,2.916,2.916,0,0,0-.391,1.718A2.917,2.917,0,0,0,2.907,22.2a1.48,1.48,0,0,0,1.266.525,1.711,1.711,0,0,0,1.019-.271,1.686,1.686,0,0,0,1,.271,1.489,1.489,0,0,0,1.272-.515,2.959,2.959,0,0,0,.387-1.724,2.946,2.946,0,0,0-.387-1.724m-3.3,3.546a.878.878,0,0,1-.825-.4,3.007,3.007,0,0,1-.235-1.424,3.012,3.012,0,0,1,.235-1.424.883.883,0,0,1,.825-.391,1,1,0,0,1,.681.211,3.216,3.216,0,0,0-.314,1.6,3.223,3.223,0,0,0,.318,1.6,1,1,0,0,1-.685.219m2.851-.389a.885.885,0,0,1-.827.389.876.876,0,0,1-.821-.4,3,3,0,0,1-.239-1.424,3,3,0,0,1,.239-1.424.88.88,0,0,1,.821-.391.892.892,0,0,1,.827.381,3.037,3.037,0,0,1,.231,1.434,3.038,3.038,0,0,1-.231,1.432" transform="translate(2.58 18.725)"/><path class="c" d="M14.274,22.58V18.3h.772l1.791,3.663L16.785,18.3h.557V22.58H16.6L14.785,18.8l.047,3.781Z" transform="translate(14.647 18.778)"/><path class="c" d="M15.355,22.634l-.034-.6a.974.974,0,0,1-.448.513,1.368,1.368,0,0,1-.74.18,1.4,1.4,0,0,1-1.23-.551,2.97,2.97,0,0,1-.4-1.716,2.734,2.734,0,0,1,.415-1.688,1.583,1.583,0,0,1,1.329-.527,1.6,1.6,0,0,1,1.094.348,1.243,1.243,0,0,1,.4.979h-.569a.873.873,0,0,0-.956-.918.912.912,0,0,0-.859.436,3.2,3.2,0,0,0-.255,1.507,2.317,2.317,0,0,0,.274,1.268.924.924,0,0,0,.831.413.943.943,0,0,0,.774-.324,1.438,1.438,0,0,0,.267-.934c0-.053,0-.089,0-.118s0-.053,0-.077H14.076V20.4H15.8v2.237Z" transform="translate(12.835 18.725)"/><path class="c" d="M10.474,21.27h.551v.152a.861.861,0,0,0,.243.663,1.059,1.059,0,0,0,.721.221.985.985,0,0,0,.675-.217.744.744,0,0,0,.243-.588.665.665,0,0,0-.15-.466,1.691,1.691,0,0,0-.671-.326c-.415-.136-1.181-.259-1.43-.766a1.106,1.106,0,0,1-.105-.507,1.074,1.074,0,0,1,.371-.871,1.552,1.552,0,0,1,1.037-.316,1.512,1.512,0,0,1,.991.29.983.983,0,0,1,.359.806.335.335,0,0,1,0,.055.288.288,0,0,0,0,.055h-.529c0-.561-.233-.786-.79-.8-.432-.006-.916.178-.894.693a.644.644,0,0,0,.158.47,1.725,1.725,0,0,0,.689.33c.041.01.1.032.186.059a4.122,4.122,0,0,1,.966.365.9.9,0,0,1,.288.359,1.278,1.278,0,0,1,.091.5,1.177,1.177,0,0,1-.407.952,1.718,1.718,0,0,1-1.131.336,1.56,1.56,0,0,1-1.092-.336,1.242,1.242,0,0,1-.371-.979l0-.071,0-.069" transform="translate(10.739 18.725)"/><rect class="c" width="0.59" height="4.279" transform="translate(24.431 37.078)"/><path class="c" d="M9.131,22.58V18.3H11.7v.44H9.7v1.376h1.862v.436H9.7v1.574h2.016v.454Z" transform="translate(9.37 18.778)"/><path class="c" d="M6.794,18.3H5.333v4.279H6.664a1.626,1.626,0,0,0,1.254-.351,1.556,1.556,0,0,0,.45-.746,4.226,4.226,0,0,0,.14-1.187,2.31,2.31,0,0,0-.413-1.511,1.626,1.626,0,0,0-1.3-.484m1,3.059a1.338,1.338,0,0,1-.261.549.613.613,0,0,1-.314.2,2.013,2.013,0,0,1-.561.061h-.75V18.713h.727a1.159,1.159,0,0,1,.979.346,2.51,2.51,0,0,1,.259,1.384,4.109,4.109,0,0,1-.079.916" transform="translate(5.472 18.777)"/><path class="c" d="M10.235,18.784a1.617,1.617,0,0,0-1.3-.484H7.475v4.279H8.806a1.619,1.619,0,0,0,1.252-.351,1.51,1.51,0,0,0,.45-.746A4.145,4.145,0,0,0,10.65,20.3a2.3,2.3,0,0,0-.415-1.511m-.3,2.575a1.312,1.312,0,0,1-.261.549.613.613,0,0,1-.314.2,2.013,2.013,0,0,1-.561.061H8.05V18.713H8.78a1.154,1.154,0,0,1,.977.346,2.5,2.5,0,0,1,.263,1.384,4.068,4.068,0,0,1-.083.916" transform="translate(7.67 18.777)"/></g></svg>