<svg xmlns="http://www.w3.org/2000/svg" xmlns:xlink="http://www.w3.org/1999/xlink" width="47.954" height="41.319" viewBox="0 0 47.954 41.319"><defs><style>.a{fill:#fff;}.b{clip-path:url(#a);}.c{fill:#006ab6;}</style><clipPath id="a"><rect class="a" width="47.954" height="41.32"/></clipPath></defs><g transform="translate(-994 -6635)"><g transform="translate(994 6635)"><path class="a" d="M.12,20.123v.249H.684v1.648H.97V20.373h.566v-.249Z" transform="translate(0.112 18.767)"/><g transform="translate(0 0)"><g class="b"><path class="a" d="M1,20.072h.28V20.8h.01a.463.463,0,0,1,.425-.222.5.5,0,0,1,.52.545v.943H1.95v-.889a.314.314,0,0,0-.334-.354.325.325,0,0,0-.338.359v.883H1Z" transform="translate(0.93 18.719)"/><path class="a" d="M1.815,21.159V21a.6.6,0,0,1,.62-.671.609.609,0,0,1,.616.686v.137H2.1v.031c0,.261.135.435.356.435a.3.3,0,0,0,.313-.211h.271a.547.547,0,0,1-.587.437.616.616,0,0,1-.632-.69m.96-.207v-.006a.343.343,0,1,0-.68,0v.006Z" transform="translate(1.693 18.963)"/><path class="a" d="M4.041,22.021H2.876v-1.9H4.041v.245H3.16v.566h.831v.238H3.16v.6h.881Z" transform="translate(2.682 18.767)"/><path class="a" d="M4.273,21.276H4.268l-.346.537H3.611l.491-.734-.483-.732h.332l.336.537h0l.338-.537h.317l-.491.732.495.734H4.623Z" transform="translate(3.367 18.975)"/><path class="a" d="M4.385,21.016a.615.615,0,0,1,.622-.682.528.528,0,0,1,.574.472H5.313a.3.3,0,0,0-.288-.234c-.226,0-.358.17-.358.452v.131c0,.276.139.454.358.454a.275.275,0,0,0,.3-.213h.269a.526.526,0,0,1-.584.452.623.623,0,0,1-.622-.7Z" transform="translate(4.089 18.963)"/><path class="a" d="M5.155,21.159V21a.621.621,0,1,1,1.237.015v.137H5.435v.031c0,.261.137.435.356.435a.3.3,0,0,0,.315-.211h.269a.547.547,0,0,1-.586.437.616.616,0,0,1-.634-.69m.962-.207v-.006a.344.344,0,1,0-.682,0v.006Z" transform="translate(4.807 18.963)"/><rect class="a" width="0.28" height="1.998" transform="translate(11.58 38.79)"/><rect class="a" width="0.28" height="1.998" transform="translate(12.289 38.79)"/><path class="a" d="M6.691,21.159V21a.621.621,0,1,1,1.237.015v.137H6.971v.031c0,.261.135.435.356.435a.3.3,0,0,0,.313-.211H7.91a.547.547,0,0,1-.587.437.616.616,0,0,1-.632-.69m.96-.207v-.006a.343.343,0,1,0-.68,0v.006Z" transform="translate(6.24 18.963)"/><path class="a" d="M7.511,20.358h.276v.2H7.8a.468.468,0,0,1,.427-.224.5.5,0,0,1,.52.547v.943h-.28v-.889a.315.315,0,0,0-.334-.354.325.325,0,0,0-.338.359v.883h-.28Z" transform="translate(7.004 18.964)"/><path class="a" d="M8.5,20.16h.276v.361h.288v.226H8.776v.814c0,.166.06.211.232.211.025,0,.046,0,.066,0v.22c-.023,0-.079.008-.135.008-.354,0-.441-.129-.441-.421v-.829H8.3v-.226h.2Z" transform="translate(7.737 18.801)"/><path class="a" d="M9.356,21.215c0,.425.191.613.479.613a.385.385,0,0,0,.429-.383h.28v.015a.653.653,0,0,1-.717.62c-.468,0-.759-.3-.759-.864v-.242c0-.564.3-.874.759-.874a.664.664,0,0,1,.717.651v.014h-.28a.412.412,0,0,0-.435-.412c-.28,0-.473.2-.473.622Z" transform="translate(8.456 18.747)"/><path class="a" d="M11.274,21.026v.124a.646.646,0,1,1-1.287,0v-.122a.645.645,0,1,1,1.287,0m-1,.008v.114c0,.274.124.47.361.47s.361-.193.361-.47v-.114c0-.282-.124-.47-.361-.47s-.361.189-.361.47" transform="translate(9.313 18.963)"/><path class="a" d="M10.847,20.358h.276v.189h.014a.408.408,0,0,1,.377-.213.4.4,0,0,1,.419.242h.012a.459.459,0,0,1,.448-.242.452.452,0,0,1,.487.491v1H12.6v-.933a.28.28,0,0,0-.3-.311.294.294,0,0,0-.3.329v.916h-.274v-.916c0-.216-.116-.329-.3-.329a.294.294,0,0,0-.3.327v.918h-.28Z" transform="translate(10.115 18.964)"/><path class="a" d="M12.412,21.624H12.4v.7h-.28V20.358h.272v.213h.01a.483.483,0,0,1,.431-.236c.327,0,.564.253.564.69v.131c0,.433-.234.69-.574.69a.468.468,0,0,1-.414-.222m.705-.485v-.106c0-.292-.131-.462-.35-.462s-.369.182-.369.462v.106c0,.286.143.47.375.47.2,0,.344-.162.344-.47" transform="translate(11.304 18.964)"/><path class="a" d="M13.414,21.849a.438.438,0,0,1-.479-.446c0-.259.18-.423.516-.425h.377v-.143a.253.253,0,0,0-.286-.274c-.176,0-.274.089-.288.224h-.265c.014-.249.184-.448.56-.448.321,0,.559.162.559.483v1h-.269v-.182h-.01a.454.454,0,0,1-.415.207m.414-.51v-.166H13.49c-.187,0-.271.089-.271.216a.245.245,0,0,0,.276.236.3.3,0,0,0,.332-.286" transform="translate(12.062 18.965)"/><path class="a" d="M13.759,20.358h.276v.2h.01a.468.468,0,0,1,.427-.224.5.5,0,0,1,.52.547v.943h-.28v-.889a.315.315,0,0,0-.334-.354.325.325,0,0,0-.338.359v.883h-.28Z" transform="translate(12.831 18.964)"/><path class="a" d="M15.352,21.806l-.037.1c-.089.234-.2.439-.531.439a1.117,1.117,0,0,1-.164-.014v-.216c.021,0,.075,0,.11,0a.248.248,0,0,0,.28-.222l.021-.068L14.5,20.347h.311l.371,1.179h.008l.373-1.179h.3s-.508,1.451-.51,1.459" transform="translate(13.522 18.975)"/><path class="a" d="M15.556,20.123h.738a.473.473,0,0,1,.537.468.4.4,0,0,1-.311.417v.015a.439.439,0,0,1,.415.466c0,.348-.278.533-.661.533h-.719Zm.284.808h.276c.284,0,.429-.085.429-.292s-.131-.28-.307-.28h-.4Zm0,.856h.313c.286,0,.491-.056.491-.3,0-.218-.151-.325-.379-.325H15.84Z" transform="translate(14.507 18.766)"/><path class="a" d="M16.445,20.358h.282v.186h.008a.375.375,0,0,1,.356-.209.729.729,0,0,1,.1.008V20.6a.55.55,0,0,0-.126-.01c-.253,0-.334.155-.334.354v.885h-.284Z" transform="translate(15.336 18.964)"/><path class="a" d="M17.417,21.849a.438.438,0,0,1-.479-.446c0-.259.18-.423.516-.425h.377v-.143a.253.253,0,0,0-.286-.274c-.176,0-.274.089-.288.224h-.265c.014-.249.184-.448.56-.448.321,0,.559.162.559.483v1h-.269v-.182h-.01a.454.454,0,0,1-.415.207m.414-.51v-.166h-.338c-.187,0-.271.089-.271.216a.245.245,0,0,0,.276.236.3.3,0,0,0,.332-.286" transform="translate(15.795 18.965)"/><path class="a" d="M17.757,20.358h.274v.2h.01a.468.468,0,0,1,.427-.224.5.5,0,0,1,.52.547v.943h-.28v-.889a.315.315,0,0,0-.334-.354.325.325,0,0,0-.338.359v.883h-.278Z" transform="translate(16.559 18.964)"/><path class="a" d="M19.57,20.808h.01v-.736h.282v2h-.274v-.222H19.58a.461.461,0,0,1-.429.243c-.375,0-.578-.274-.578-.69V21.27c0-.408.215-.69.578-.69a.464.464,0,0,1,.419.228m-.711.47v.114c0,.309.149.462.356.462.228,0,.369-.166.369-.46v-.116c0-.282-.143-.462-.373-.462-.2,0-.352.153-.352.462" transform="translate(17.32 18.719)"/><path class="a" d="M20.94,21.026v.124a.645.645,0,1,1-1.285,0v-.122a.644.644,0,1,1,1.285,0m-1,.008v.114c0,.274.122.47.359.47s.361-.193.361-.47v-.114c0-.282-.124-.47-.361-.47s-.359.189-.359.47" transform="translate(18.329 18.963)"/><path class="a" d="M20.648,20.844h-.2v-.228h.2v-.145c0-.288.145-.412.458-.412a.845.845,0,0,1,.126.008v.218a.572.572,0,0,0-.081-.008c-.151,0-.226.052-.226.215v.124h.288v.228h-.284v1.239h-.28Z" transform="translate(19.068 18.707)"/><path class="a" d="M21.46,21.52c.014.174.164.319.443.319.253,0,.41-.122.41-.311,0-.151-.1-.232-.307-.284l-.319-.081a.517.517,0,0,1-.454-.5c0-.361.315-.557.673-.557a.6.6,0,0,1,.671.545H22.3a.352.352,0,0,0-.4-.305c-.226,0-.383.106-.383.294,0,.129.085.222.265.265l.319.081c.286.072.5.209.5.522,0,.373-.307.578-.725.578-.516,0-.694-.309-.7-.56Z" transform="translate(19.747 18.747)"/><path class="a" d="M22.067,21.159V21a.621.621,0,1,1,1.237.015v.137h-.957v.031c0,.261.135.435.356.435a.3.3,0,0,0,.313-.211h.271a.547.547,0,0,1-.587.437.616.616,0,0,1-.632-.69m.96-.207v-.006a.343.343,0,1,0-.68,0v.006Z" transform="translate(20.578 18.963)"/><path class="a" d="M24.157,21.026v.124a.646.646,0,1,1-1.287,0v-.122a.645.645,0,1,1,1.287,0m-1,.008v.114c0,.274.124.47.361.47s.361-.193.361-.47v-.114c0-.282-.124-.47-.361-.47s-.361.189-.361.47" transform="translate(21.327 18.963)"/><path class="a" d="M24.945,21.814h-.276v-.2h-.01a.44.44,0,0,1-.425.222.473.473,0,0,1-.514-.514v-.978H24v.9c0,.265.151.344.327.344a.318.318,0,0,0,.336-.348v-.895h.28Z" transform="translate(22.12 18.975)"/><rect class="a" width="0.28" height="1.998" transform="translate(47.492 38.79)"/><path class="a" d="M2.878,20.5a3.161,3.161,0,0,1-1.231-1.428A3.219,3.219,0,0,1,.419,20.6L0,20.263a2.709,2.709,0,0,0,1.374-2.58v-.756h.545v.756a2.582,2.582,0,0,0,1.308,2.433Zm.868.918v-2.7H2.715V18.25h1.03V16.663h.52v4.76Z" transform="translate(0 15.54)"/><path class="a" d="M4.534,19.086H2.505v-.423h4.59v.423h-2v.379H6.5v1.144H3.653v.365H6.616v.414H3.1V20.214H5.943v-.346H3.1v-.4H4.534Zm.267-.754c-1.154,0-1.753-.334-1.753-.831s.6-.856,1.753-.856,1.751.379,1.751.856c0,.5-.593.831-1.751.831m0-1.3c-.74,0-1.179.2-1.179.462s.448.464,1.179.464,1.179-.2,1.179-.456c0-.267-.45-.47-1.179-.47" transform="translate(2.336 15.523)"/><path class="a" d="M7.881,20.516A3.16,3.16,0,0,1,6.65,19.087a3.247,3.247,0,0,1-1.231,1.525L5,20.272a2.708,2.708,0,0,0,1.37-2.58v-.75H6.92v.75a2.58,2.58,0,0,0,1.31,2.433Zm.841-3.852h.522v4.76H8.721Z" transform="translate(4.665 15.541)"/><path class="a" d="M10.042,19.787v1.621H9.52V19.787H7.487v-.454h4.59v.454Zm-.255-1c-1.136,0-1.8-.443-1.8-1.053s.653-1.055,1.79-1.055,1.79.45,1.79,1.055-.642,1.053-1.784,1.053M8.546,17.733c0,.365.516.62,1.235.62s1.227-.247,1.227-.611-.506-.632-1.227-.632-1.235.249-1.235.622" transform="translate(6.982 15.554)"/><path class="a" d="M12.546,19.636v1.786h-.541V19.636H9.98v-.452h4.59v.452Zm-1.981-.906-.317-.373C11.7,18.075,12,17.246,12,16.907v-.243h.553v.243c0,.338.245,1.107,1.753,1.449l-.319.373a2.524,2.524,0,0,1-1.716-1.136,2.513,2.513,0,0,1-1.7,1.136" transform="translate(9.307 15.541)"/><path class="a" d="M12.955,20.6l-.39-.319a3.319,3.319,0,0,0,1.923-2.624H12.839V17.2h2.249a3.954,3.954,0,0,1-2.134,3.4m3.138-3.935h.522v4.76h-.522Z" transform="translate(11.717 15.541)"/><path class="a" d="M18.522,17.655v-.991h.522V19.2h-.522V18.108h-1a1.2,1.2,0,0,1-1.219.916,1.113,1.113,0,1,1,0-2.213,1.2,1.2,0,0,1,1.2.845Zm-2.217-.367a.671.671,0,0,0-.7.615.7.7,0,0,0,1.4,0,.666.666,0,0,0-.7-.615m-.547,4.082v-1.94h.514v.508h2.244v-.508h.522v1.94Zm2.758-1H16.275v.547h2.242Z" transform="translate(14.052 15.541)"/><path class="a" d="M17.456,20.1h4.59v.454h-4.59Zm.626-.761V16.85H18.6v.761H20.9V16.85h.516v2.487ZM20.9,18.066H18.6v.816H20.9Z" transform="translate(16.278 15.714)"/><path class="a" d="M21.044,19.625l-.943.01V18.1h1.268v-.719H20.1v-.45h1.784v1.608H20.617v.649l.589-.008a8.545,8.545,0,0,0,1.038-.073v.437c-.24.033-.823.077-1.2.083m-.39,1.693v-1.4h.522v.947h2.963v.454Zm2.889-1.132V18.568h-.537V20.1H22.5V16.747h.506v1.333h.537V16.664h.506v3.521Z" transform="translate(18.745 15.541)"/><path class="a" d="M22.439,20.056h4.59v.454h-4.59Zm.62-.893V16.918h3.384v.456H23.581v1.335H26.47v.454Z" transform="translate(20.925 15.777)"/><path class="c" d="M37.78,11.166a8.818,8.818,0,0,0-1.376.191l0,0c-1.753.369-3.693.874-3.473-.937.027-.135.054-.274.075-.41a.376.376,0,0,0,.012-.044l0,0c1-6.049-2.626-10.279-9.255-9.945-7.931.4-17.151,7.187-20.6,15.153s.189,14.1,8.121,13.7a21.14,21.14,0,0,0,9.125-2.891c3.061-1.8,5.353-2.624,7.717-.8l.008-.017a5.079,5.079,0,0,0,3.241.806c4.07-.2,8.8-3.683,10.567-7.773s-.1-7.233-4.165-7.027" transform="translate(1.739 0.001)"/><path class="a" d="M12.48,10.509c-.012,0-.274.017-.274.017l-.253,0-.079,0c.044-.2.112-.493.149-.6l.052-.126.118-.3.037-.114a2,2,0,0,0,.122-.557l0-.054a.8.8,0,0,0-.191-.46.576.576,0,0,0-.439-.228.657.657,0,0,0-.541.294,5.556,5.556,0,0,0-.417,1.243l-.089.361s-.095.387-.112.448H7.62c.046-.141.131-.412.131-.412l.456-1.411.624-1.735a1.115,1.115,0,0,0,.05-.34c0-.031,0-.064,0-.1a.832.832,0,0,0-.271-.572.732.732,0,0,0-.491-.224c-.189,0-.444.1-.591.587L6.518,9.564c-.2.64-.267.843-.29.908l-.041.021a1.721,1.721,0,0,0-.412.215A.528.528,0,0,0,5.5,11.1l0,.025c.014.176.143.313.359.423-.046.151-.238.891-.394,1.515a6.281,6.281,0,0,0-.228,1.44c0,.058,0,.11,0,.162.044.572.346.657.52.657a1.116,1.116,0,0,0,.854-.559A1.5,1.5,0,0,0,7,13.955l0-.039a.515.515,0,0,0-.365-.477,4.532,4.532,0,0,1,.18-.667l.06-.187c.1-.315.271-.839.317-.924.041-.064.064-.073.064-.073l3.042-.06c-.072.286-.215.91-.338,1.527-.234,1.134-.236,1.206-.238,1.245l0,.213c.046.607.3.734.5.734.3,0,.6-.292.93-.918a2.813,2.813,0,0,0,.433-1.117l0-.037a.379.379,0,0,0-.274-.373c.017-.1.066-.332.184-.846l.091-.39s.023-.106.044-.191a2.33,2.33,0,0,0,.707-.174c.211-.085.446-.209.446-.417l0-.023a.269.269,0,0,0-.3-.249" transform="translate(4.887 5.261)"/><path class="a" d="M12,5.462a.572.572,0,0,0-.394-.251.78.78,0,0,0-.9.524l-.015.1,0,.023-.012.062a5.14,5.14,0,0,0-.124,1.067.447.447,0,0,0,.358.448.754.754,0,0,0,.615-.213A1.773,1.773,0,0,0,12.052,6.2.91.91,0,0,0,12,5.462" transform="translate(9.84 4.847)"/><path class="a" d="M12.665,12.012a.308.308,0,0,0-.245.139,2.416,2.416,0,0,1-.792.715,1.735,1.735,0,0,1-.841.187.146.146,0,0,1-.1-.029.123.123,0,0,1-.012-.087,19.911,19.911,0,0,1,1.72-5.347A.814.814,0,0,0,12.47,7.2a.7.7,0,0,0-.2-.446.52.52,0,0,0-.363-.191,1.2,1.2,0,0,0-1.156.806,17.731,17.731,0,0,0-1.33,5.276l-.015.12-.023.336a1.5,1.5,0,0,0,.348.831.958.958,0,0,0,.731.427,2.26,2.26,0,0,0,1.212-.468,3.407,3.407,0,0,0,.841-.777c.39-.522.431-.719.423-.835a.271.271,0,0,0-.271-.269" transform="translate(8.749 6.122)"/><path class="a" d="M17.994,3.309a1.257,1.257,0,0,0-1.239-.2.86.86,0,0,0-.593.715c-.466,4.184-2.675,5.608-4.3,6.316-.479.207-.638.564-.547.81.073.2.338.381.841.228,3.2-.976,4.835-2.872,6.037-7a.824.824,0,0,0-.2-.872" transform="translate(10.532 2.828)"/><path class="a" d="M10.9,7.685A1.852,1.852,0,0,1,9.649,5.457a.544.544,0,0,0-.23-.512A.759.759,0,0,0,8.682,4.9a.6.6,0,0,0-.354.506c-.006.083-.01.164-.01.247a2.866,2.866,0,0,0,2.3,2.879.585.585,0,0,0,.688-.338c.021-.079.054-.354-.406-.512" transform="translate(7.758 4.502)"/><path class="a" d="M18.526,9.093c0-.01-.01-.054-.01-.054a.354.354,0,0,0-.39-.352.427.427,0,0,0-.377.2.113.113,0,0,1-.1.044.442.442,0,0,0-.336.147.415.415,0,0,0-.12.327.319.319,0,0,1-.066.2c-.129.2-.24.375-.329.541a.282.282,0,0,0-.153.1A5.275,5.275,0,0,1,15.488,11.3a1.907,1.907,0,0,1-.962.34c-.2,0-.3-.093-.315-.309l0-.044a1.278,1.278,0,0,1,.033-.259c.006-.027.01-.046.015-.066a.441.441,0,0,0,.215.058,1.345,1.345,0,0,0,1.009-.441,1.286,1.286,0,0,0,.381-.895c0-.031,0-.064,0-.095a.647.647,0,0,0-.168-.4.549.549,0,0,0-.371-.172h-.01a.317.317,0,0,0-.338-.247c-.207,0-.437.168-.725.53a3.783,3.783,0,0,0-.618,1.119,2.581,2.581,0,0,0-.191,1.018,1.038,1.038,0,0,0,.286.673.823.823,0,0,0,.6.265,2.407,2.407,0,0,0,1.047-.286h0a4.1,4.1,0,0,0,1.044-.777,1.624,1.624,0,0,0-.014.342.8.8,0,0,0,.232.5.618.618,0,0,0,.444.228,1.767,1.767,0,0,0,1.069-.421A2.319,2.319,0,0,0,18.905,11a2.159,2.159,0,0,0,.2-.788.456.456,0,0,0,0-.073,1.267,1.267,0,0,0-.57-1.042m-1.189,2.57a.11.11,0,0,1-.085-.044.269.269,0,0,1-.054-.157,2.264,2.264,0,0,1,.35-1.181c.352-.645.51-.676.537-.676.06,0,.238,0,.272.493,0,.021,0,.041,0,.06a1.911,1.911,0,0,1-.33.931c-.224.379-.458.574-.694.574m-2.891-1.33a3.915,3.915,0,0,1,.2-.415c.2-.373.313-.385.327-.385a.116.116,0,0,1,.089.05.266.266,0,0,1,.06.168v.025a.5.5,0,0,1-.193.359.7.7,0,0,1-.485.2" transform="translate(12.528 8.102)"/><path class="a" d="M22.661,11.889a.181.181,0,0,0-.143.077,2.7,2.7,0,0,1-.429.417,1.055,1.055,0,0,1-.528.232c-.027,0-.039-.079-.041-.126a5.628,5.628,0,0,1,.332-1.606,17.979,17.979,0,0,1,.918-2.45.93.93,0,0,0,.1-.415.556.556,0,0,0-.1-.271.336.336,0,0,0-.284-.16.31.31,0,0,0-.189.07c-.044.037-.1.1-.305.578-.139.323-.336.864-.591,1.612-.157.46-.286.875-.381,1.237l-.006.008a10.721,10.721,0,0,1-1.03,1.076c-.425.381-.593.421-.645.421h-.006s-.023-.019-.031-.106l0-.046a4.2,4.2,0,0,1,.112-.756,6.7,6.7,0,0,1,.3-1.049,1.081,1.081,0,0,0,.133-.421v-.021a.449.449,0,0,0-.129-.269.361.361,0,0,0-.263-.129c-.184,0-.315.2-.4.358A9.874,9.874,0,0,1,18,11.788c-.477.582-.669.645-.732.645l-.01,0a.155.155,0,0,1-.019-.085l0-.029a2.328,2.328,0,0,1,.133-.609l.17-.539a.524.524,0,0,1,.091-.1,1.63,1.63,0,0,0,.236-.373c.124-.242.143-.319.139-.375a.377.377,0,0,0-.178-.282.545.545,0,0,0-.317-.108c-.128,0-.245.093-.358.282a7.368,7.368,0,0,0-.441,1.171,4.029,4.029,0,0,0-.272,1.341.866.866,0,0,0,.135.429.387.387,0,0,0,.311.2,1.789,1.789,0,0,0,1.028-.613,7.59,7.59,0,0,0,.75-.8c-.017.091-.037.2-.037.2a2.943,2.943,0,0,0-.048.5c0,.046,0,.091.006.135.037.5.271.6.458.6a1.493,1.493,0,0,0,.717-.271,5.369,5.369,0,0,0,1.03-.93l.006-.006a2.508,2.508,0,0,0-.041.516.971.971,0,0,0,.145.472.431.431,0,0,0,.363.218,1.907,1.907,0,0,0,1.125-.684c.448-.45.439-.6.435-.649a.16.16,0,0,0-.158-.16" transform="translate(15.325 7.076)"/><path class="a" d="M14.8,8.457l.385-.014a.586.586,0,0,0,.369-.17.418.418,0,0,0,.164-.323.361.361,0,0,0-.392-.392,2.565,2.565,0,0,0-.87.309,2.669,2.669,0,0,0-1.044.817,1.616,1.616,0,0,0-.327.924,3.665,3.665,0,0,0,.276,1.187,5.2,5.2,0,0,1,.369,1.364.678.678,0,0,1-.158.483.664.664,0,0,1-.435.157,1.23,1.23,0,0,1-.616-.2.306.306,0,0,0-.2-.068A.456.456,0,0,0,12,12.65a.339.339,0,0,0-.106.284c.006.321.3.483.883.483a3.246,3.246,0,0,0,.951-.145,1.19,1.19,0,0,0,.6-.47,1.152,1.152,0,0,0,.2-.661,5.568,5.568,0,0,0-.367-1.529,4.956,4.956,0,0,1-.294-1.252.776.776,0,0,1,.242-.6.983.983,0,0,1,.688-.309" transform="translate(11.091 7.049)"/></g></g></g></g></svg>