<svg xmlns="http://www.w3.org/2000/svg" width="151.678" height="19.516" viewBox="0 0 151.678 19.516"><defs><style>.a{fill:#fff;}</style></defs><path class="a" d="M9.464-14.364h4.424L8.372-7.224,14.112,0H9.268L4.7-5.908V0H.784V-19.18H4.7V-7.924Zm10.7-.28a7.905,7.905,0,0,1,3.066.588,7.726,7.726,0,0,1,2.45,1.6A7.288,7.288,0,0,1,27.3-10.08a7.384,7.384,0,0,1,.588,2.94A7.284,7.284,0,0,1,27.3-4.214a7.327,7.327,0,0,1-1.624,2.366,7.726,7.726,0,0,1-2.45,1.6A7.905,7.905,0,0,1,20.16.336a8.074,8.074,0,0,1-3.066-.574,7.535,7.535,0,0,1-2.45-1.582,7.11,7.11,0,0,1-1.61-2.38,7.54,7.54,0,0,1-.574-2.94,7.384,7.384,0,0,1,.588-2.94,7.4,7.4,0,0,1,1.61-2.38,7.559,7.559,0,0,1,2.436-1.6A7.905,7.905,0,0,1,20.16-14.644Zm0,3.528a3.968,3.968,0,0,0-1.526.294A3.623,3.623,0,0,0,17.4-10a3.851,3.851,0,0,0-.812,1.26,4.224,4.224,0,0,0-.294,1.6,4.411,4.411,0,0,0,.28,1.6,3.784,3.784,0,0,0,.784,1.26,3.679,3.679,0,0,0,1.2.84,3.712,3.712,0,0,0,1.512.308,3.912,3.912,0,0,0,1.54-.308,3.922,3.922,0,0,0,1.26-.84,3.922,3.922,0,0,0,.84-1.26,4.055,4.055,0,0,0,.308-1.6,4.224,4.224,0,0,0-.294-1.6A3.851,3.851,0,0,0,22.918-10a3.623,3.623,0,0,0-1.232-.826A3.968,3.968,0,0,0,20.16-11.116ZM29.148,0V-14.364H33.04v1.96a5.606,5.606,0,0,1,1.778-1.568,4.815,4.815,0,0,1,2.394-.588v3.92a4.037,4.037,0,0,0-3.15,1.106,4.3,4.3,0,0,0-.994,2.982V0Zm22.6-3.08a7.639,7.639,0,0,1-2.73,2.506,8.4,8.4,0,0,1-4.074.91,8.092,8.092,0,0,1-3.122-.574,7.24,7.24,0,0,1-2.38-1.568,6.755,6.755,0,0,1-1.526-2.366A8.139,8.139,0,0,1,37.38-7.14a7.8,7.8,0,0,1,.546-2.912,7.118,7.118,0,0,1,1.554-2.394,7.321,7.321,0,0,1,2.408-1.61,7.876,7.876,0,0,1,3.08-.588,7.873,7.873,0,0,1,3.052.56,6.657,6.657,0,0,1,2.282,1.54,6.767,6.767,0,0,1,1.442,2.31,8.113,8.113,0,0,1,.5,2.9q0,.42-.028.868t-.028.5H41.216a3.8,3.8,0,0,0,1.3,2.184,3.831,3.831,0,0,0,2.506.812,4.6,4.6,0,0,0,2.254-.518,4.618,4.618,0,0,0,1.554-1.386Zm-6.8-8.372a3.684,3.684,0,0,0-2.282.686,3.742,3.742,0,0,0-1.3,1.918h6.972a3.106,3.106,0,0,0-1.26-1.96A3.713,3.713,0,0,0,44.94-11.452Zm15.988.476a3.615,3.615,0,0,0-1.5.308,3.832,3.832,0,0,0-1.19.826,3.844,3.844,0,0,0-.8,1.232,3.9,3.9,0,0,0-.294,1.5A3.865,3.865,0,0,0,57.442-5.6a4.059,4.059,0,0,0,.8,1.232,3.543,3.543,0,0,0,1.19.826,3.763,3.763,0,0,0,1.5.294,4.042,4.042,0,0,0,1.554-.294,3.775,3.775,0,0,0,1.246-.826A3.814,3.814,0,0,0,64.554-5.6a3.865,3.865,0,0,0,.294-1.512,3.743,3.743,0,0,0-.308-1.5,3.8,3.8,0,0,0-.84-1.232,4.088,4.088,0,0,0-1.246-.826A3.811,3.811,0,0,0,60.928-10.976Zm3.864,9.912A5.7,5.7,0,0,1,62.93-.14,8,8,0,0,1,60.592.2a7.076,7.076,0,0,1-2.8-.56A7.2,7.2,0,0,1,55.5-1.9a7.546,7.546,0,0,1-1.568-2.31,7.087,7.087,0,0,1-.588-2.9,7.215,7.215,0,0,1,.588-2.9A7.63,7.63,0,0,1,55.5-12.362a7.273,7.273,0,0,1,2.3-1.568,6.927,6.927,0,0,1,2.8-.574,7.7,7.7,0,0,1,2.338.35,5.906,5.906,0,0,1,1.862.938v-1.148h3.892V0H64.792Zm9.3-11.872a7.068,7.068,0,0,1,.658-.574,5.277,5.277,0,0,1,.882-.546,5.531,5.531,0,0,1,1.106-.406,5.364,5.364,0,0,1,1.33-.154,5.6,5.6,0,0,1,2.282.462,4.647,4.647,0,0,1,1.834,1.5,6.362,6.362,0,0,1,1.988-1.428,6.409,6.409,0,0,1,2.716-.532,6.406,6.406,0,0,1,2.352.406A4.888,4.888,0,0,1,91-13.048a5.016,5.016,0,0,1,1.106,1.806A6.864,6.864,0,0,1,92.484-8.9V0H88.62V-8.26a3.048,3.048,0,0,0-.63-2.016,2.186,2.186,0,0,0-1.778-.756,2.8,2.8,0,0,0-2.114.826,3.147,3.147,0,0,0-.8,2.282V0H79.464V-8.26a3.048,3.048,0,0,0-.63-2.016,2.186,2.186,0,0,0-1.778-.756,2.8,2.8,0,0,0-2.114.826,3.147,3.147,0,0,0-.8,2.282V0H70.252V-14.364h3.836ZM108.164-3.08a7.639,7.639,0,0,1-2.73,2.506,8.4,8.4,0,0,1-4.074.91,8.092,8.092,0,0,1-3.122-.574,7.24,7.24,0,0,1-2.38-1.568,6.755,6.755,0,0,1-1.526-2.366A8.139,8.139,0,0,1,93.8-7.14a7.8,7.8,0,0,1,.546-2.912A7.118,7.118,0,0,1,95.9-12.446a7.321,7.321,0,0,1,2.408-1.61,7.876,7.876,0,0,1,3.08-.588,7.873,7.873,0,0,1,3.052.56,6.657,6.657,0,0,1,2.282,1.54,6.767,6.767,0,0,1,1.442,2.31,8.114,8.114,0,0,1,.5,2.9q0,.42-.028.868t-.028.5H97.636a3.8,3.8,0,0,0,1.3,2.184,3.831,3.831,0,0,0,2.506.812,4.6,4.6,0,0,0,2.254-.518,4.618,4.618,0,0,0,1.554-1.386Zm-6.8-8.372a3.684,3.684,0,0,0-2.282.686,3.742,3.742,0,0,0-1.3,1.918h6.972a3.106,3.106,0,0,0-1.26-1.96A3.713,3.713,0,0,0,101.36-11.452Zm12.376,6.944a1.9,1.9,0,0,0,.126.672,1.589,1.589,0,0,0,.434.616,2.591,2.591,0,0,0,.812.476,3.6,3.6,0,0,0,1.288.2,2.537,2.537,0,0,0,1.61-.42,1.192,1.192,0,0,0,.518-.924.874.874,0,0,0-.2-.574,1.341,1.341,0,0,0-.532-.378,4.537,4.537,0,0,0-.8-.238q-.462-.1-.994-.182-.952-.168-2-.364a6.843,6.843,0,0,1-1.932-.658,3.977,3.977,0,0,1-1.456-1.3,4.018,4.018,0,0,1-.574-2.3,4.013,4.013,0,0,1,.42-1.82,4.475,4.475,0,0,1,1.19-1.47,5.807,5.807,0,0,1,1.862-.994,7.77,7.77,0,0,1,2.464-.364,6.836,6.836,0,0,1,4.368,1.288,4.689,4.689,0,0,1,1.792,3.472h-3.892a3.483,3.483,0,0,0-.126-.728,1.261,1.261,0,0,0-.35-.574,1.785,1.785,0,0,0-.672-.378,3.418,3.418,0,0,0-1.064-.14,3.257,3.257,0,0,0-1.442.294,1,1,0,0,0-.6.966.92.92,0,0,0,.252.658,1.833,1.833,0,0,0,.7.434,6.348,6.348,0,0,0,1.036.28q.588.112,1.232.224.924.168,1.89.378a6.324,6.324,0,0,1,1.764.658,3.8,3.8,0,0,1,1.3,1.19,3.4,3.4,0,0,1,.5,1.946,4.475,4.475,0,0,1-.5,2.2,4.307,4.307,0,0,1-1.372,1.5A6.142,6.142,0,0,1,118.734,0,11.039,11.039,0,0,1,116.2.28a8.847,8.847,0,0,1-2.646-.364,6.225,6.225,0,0,1-1.988-1.008A4.722,4.722,0,0,1,110.278-2.6a4.239,4.239,0,0,1-.49-1.9Zm13.916,0a1.9,1.9,0,0,0,.126.672,1.589,1.589,0,0,0,.434.616,2.592,2.592,0,0,0,.812.476,3.6,3.6,0,0,0,1.288.2,2.537,2.537,0,0,0,1.61-.42,1.192,1.192,0,0,0,.518-.924.874.874,0,0,0-.2-.574,1.34,1.34,0,0,0-.532-.378,4.537,4.537,0,0,0-.8-.238q-.462-.1-.994-.182-.952-.168-2-.364a6.843,6.843,0,0,1-1.932-.658,3.977,3.977,0,0,1-1.456-1.3,4.018,4.018,0,0,1-.574-2.3,4.013,4.013,0,0,1,.42-1.82,4.475,4.475,0,0,1,1.19-1.47,5.807,5.807,0,0,1,1.862-.994,7.77,7.77,0,0,1,2.464-.364,6.836,6.836,0,0,1,4.368,1.288,4.689,4.689,0,0,1,1.792,3.472H132.16a3.482,3.482,0,0,0-.126-.728,1.261,1.261,0,0,0-.35-.574,1.786,1.786,0,0,0-.672-.378,3.418,3.418,0,0,0-1.064-.14,3.257,3.257,0,0,0-1.442.294,1,1,0,0,0-.6.966.92.92,0,0,0,.252.658,1.833,1.833,0,0,0,.7.434,6.348,6.348,0,0,0,1.036.28q.588.112,1.232.224.924.168,1.89.378a6.324,6.324,0,0,1,1.764.658,3.8,3.8,0,0,1,1.3,1.19,3.4,3.4,0,0,1,.5,1.946,4.475,4.475,0,0,1-.5,2.2,4.307,4.307,0,0,1-1.372,1.5A6.141,6.141,0,0,1,132.65,0a11.039,11.039,0,0,1-2.534.28,8.847,8.847,0,0,1-2.646-.364,6.225,6.225,0,0,1-1.988-1.008A4.722,4.722,0,0,1,124.194-2.6a4.239,4.239,0,0,1-.49-1.9Zm24.3,1.428a7.639,7.639,0,0,1-2.73,2.506,8.4,8.4,0,0,1-4.074.91,8.092,8.092,0,0,1-3.122-.574,7.24,7.24,0,0,1-2.38-1.568,6.755,6.755,0,0,1-1.526-2.366,8.139,8.139,0,0,1-.532-2.968,7.8,7.8,0,0,1,.546-2.912,7.118,7.118,0,0,1,1.554-2.394,7.321,7.321,0,0,1,2.408-1.61,7.876,7.876,0,0,1,3.08-.588,7.873,7.873,0,0,1,3.052.56,6.657,6.657,0,0,1,2.282,1.54,6.767,6.767,0,0,1,1.442,2.31,8.114,8.114,0,0,1,.5,2.9q0,.42-.028.868t-.028.5H141.428a3.8,3.8,0,0,0,1.3,2.184,3.831,3.831,0,0,0,2.506.812,4.6,4.6,0,0,0,2.254-.518,4.618,4.618,0,0,0,1.554-1.386Zm-6.8-8.372a3.684,3.684,0,0,0-2.282.686,3.742,3.742,0,0,0-1.3,1.918h6.972a3.106,3.106,0,0,0-1.26-1.96A3.713,3.713,0,0,0,145.152-11.452Z" transform="translate(-0.783 19.18)"/></svg>